<?xml version="1.0" standalone="no"?>
<!DOCTYPE svg PUBLIC "-//W3C//DTD SVG 20010904//EN"
 "http://www.w3.org/TR/2001/REC-SVG-20010904/DTD/svg10.dtd">
<svg version="1.0" xmlns="http://www.w3.org/2000/svg"
 width="256.000000pt" height="256.000000pt" viewBox="0 0 256.000000 256.000000"
 preserveAspectRatio="xMidYMid meet">

<g transform="translate(0.000000,256.000000) scale(0.100000,-0.100000)"
fill="#000000" stroke="none">
<path d="M693 2266 c-150 -37 -291 -150 -356 -288 -43 -90 -57 -161 -57 -295
0 -147 24 -186 114 -185 32 1 47 7 67 30 25 28 27 36 31 158 4 112 8 137 30
186 33 71 95 133 166 166 49 22 74 26 185 30 113 4 132 7 153 26 52 45 47 132
-9 166 -27 17 -50 20 -152 19 -66 0 -144 -6 -172 -13z"/>
<path d="M1543 2260 c-56 -34 -61 -121 -9 -166 21 -19 40 -22 153 -26 111 -4
136 -8 185 -30 71 -33 133 -95 166 -166 22 -49 26 -74 30 -185 4 -113 7 -132
26 -153 45 -52 132 -47 166 9 17 27 20 50 20 144 0 137 -12 196 -57 293 -68
143 -222 261 -377 289 -33 6 -107 11 -165 11 -88 0 -112 -3 -138 -20z"/>
<path d="M1214 1832 c-74 -47 -97 -130 -54 -199 53 -88 198 -83 246 8 27 53
15 123 -29 166 -45 45 -114 56 -163 25z"/>
<path d="M795 1410 c-69 -29 -102 -118 -70 -191 45 -98 189 -108 245 -16 41
67 16 168 -49 202 -32 16 -93 19 -126 5z"/>
<path d="M1602 1400 c-69 -42 -90 -120 -50 -191 69 -123 261 -71 261 71 0 109
-119 176 -211 120z"/>
<path d="M1232 1327 c-44 -46 -14 -117 48 -117 63 0 93 75 47 118 -30 28 -68
28 -95 -1z"/>
<path d="M352 1058 c-57 -15 -72 -54 -72 -185 0 -137 12 -196 58 -293 25 -54
54 -93 101 -140 118 -117 234 -160 436 -160 92 0 115 3 142 20 56 34 61 121 9
166 -21 19 -40 22 -153 26 -110 4 -137 8 -184 30 -78 35 -124 80 -160 154 -30
61 -33 74 -37 196 -4 114 -7 133 -26 154 -27 31 -72 43 -114 32z"/>
<path d="M2144 1059 c-60 -16 -68 -37 -75 -184 -5 -112 -10 -141 -31 -187 -35
-77 -80 -123 -154 -159 -61 -30 -74 -33 -196 -37 -114 -4 -133 -7 -154 -26
-52 -45 -47 -132 9 -166 27 -17 50 -20 147 -20 198 0 313 43 431 160 47 46 76
86 102 140 44 92 57 162 57 299 0 88 -3 112 -20 139 -11 17 -21 32 -22 32 -2
0 -17 4 -33 8 -17 5 -44 5 -61 1z"/>
<path d="M1203 970 c-87 -53 -82 -193 8 -242 96 -51 209 14 209 121 0 84 -56
141 -140 141 -27 0 -58 -8 -77 -20z"/>
</g>
</svg>
