<svg xmlns="http://www.w3.org/2000/svg" width="380" height="364" viewBox="0 0 380 364" version="1.1" transform="matrix(1, 0, 0, 1, 0, 0)"><path d="M 285 104.750 L 285 173.500 225.250 173.234 C 158.391 172.935, 163 172.426, 163 180.109 C 163 187.619, 157.467 187, 224.607 187 L 285 187 285 257 L 285 327 291.500 327 L 298 327 298 181.500 L 298 36 291.500 36 L 285 36 285 104.750 M 41 181.500 L 41 319 55 319 L 69 319 69 257.445 C 69 195.890, 69 195.890, 73.717 196.195 C 77.868 196.463, 78.702 196.919, 80.670 200 C 84.009 205.224, 88.275 210.919, 90.250 212.788 C 91.213 213.699, 92 214.861, 92 215.369 C 92 215.878, 93.575 218.216, 95.500 220.565 C 97.425 222.915, 99 225.159, 99 225.554 C 99 225.948, 100.097 227.288, 101.438 228.530 C 102.779 229.773, 103.668 230.998, 103.414 231.253 C 103.160 231.507, 103.638 232.284, 104.476 232.980 C 105.314 233.676, 106 234.701, 106 235.258 C 106 235.815, 107.013 237.226, 108.250 238.393 C 109.487 239.561, 111.172 241.862, 111.994 243.508 C 112.815 245.154, 114.503 247.414, 115.744 248.532 C 116.985 249.649, 118 251.042, 118 251.627 C 118 252.212, 118.900 253.505, 120 254.500 C 121.100 255.495, 122 256.915, 122 257.655 C 122 258.395, 122.461 259, 123.025 259 C 123.588 259, 124.477 260.125, 125 261.500 C 125.523 262.875, 126.381 264, 126.908 264 C 127.434 264, 128.181 264.995, 128.567 266.212 C 128.953 267.429, 130.357 269.280, 131.687 270.326 C 133.017 271.372, 133.884 272.450, 133.613 272.721 C 133.088 273.245, 133.267 273.510, 137.965 279.132 C 139.634 281.130, 141 283.281, 141 283.913 C 141 284.546, 141.709 285.335, 142.577 285.668 C 143.444 286.001, 144.568 287.224, 145.074 288.386 C 146.546 291.764, 148.367 294.369, 150.250 295.791 C 151.212 296.519, 152 297.693, 152 298.402 C 152 299.110, 152.900 300.505, 154 301.500 C 155.100 302.495, 156 303.867, 156 304.548 C 156 305.229, 156.675 306.045, 157.500 306.362 C 158.325 306.678, 159 307.462, 159 308.104 C 159 308.746, 160.125 310.313, 161.500 311.588 C 162.875 312.862, 164 314.306, 164 314.797 C 164 315.288, 164.823 316.435, 165.829 317.345 C 167.381 318.750, 170.254 319, 184.829 319 C 194.273 319, 202 318.759, 202 318.465 C 202 317.445, 198.542 312.496, 197.274 311.700 C 196.573 311.260, 196 310.318, 196 309.605 C 196 308.893, 195.100 307.495, 194 306.500 C 192.900 305.505, 192 304.262, 192 303.739 C 192 303.216, 190.875 301.903, 189.500 300.821 C 188.125 299.740, 187 298.294, 187 297.607 C 187 296.921, 185.425 294.520, 183.500 292.271 C 181.575 290.022, 180 287.841, 180 287.425 C 180 287.008, 179.327 285.955, 178.505 285.084 C 175.845 282.265, 172 277.229, 172 276.563 C 172 276.207, 171.557 275.372, 171.015 274.708 C 166.594 269.287, 165 267.111, 165 266.500 C 165 266.108, 163.875 264.903, 162.500 263.821 C 161.125 262.740, 160 261.235, 160 260.477 C 160 259.719, 159.438 258.740, 158.750 258.300 C 157.125 257.260, 153 251.370, 153 250.090 C 153 249.545, 152.438 248.740, 151.750 248.300 C 150.438 247.461, 146 241.471, 146 240.540 C 146 240.243, 145.305 239.213, 144.455 238.250 C 143.606 237.287, 141.353 234.475, 139.448 232 C 137.544 229.525, 135.626 227.050, 135.187 226.500 C 134.748 225.950, 134.319 225.148, 134.234 224.717 C 134.149 224.287, 132.487 221.990, 130.540 219.614 C 128.593 217.238, 127 214.928, 127 214.481 C 127 214.034, 126.327 212.955, 125.505 212.084 C 122.845 209.265, 119 204.229, 119 203.563 C 119 203.207, 118.557 202.372, 118.015 201.708 C 113.660 196.367, 112 194.120, 112 193.563 C 112 193.207, 111.553 192.372, 111.007 191.708 C 105.455 184.955, 103 181.690, 103 181.060 C 103 180.648, 103.900 179.495, 105 178.500 C 106.100 177.505, 107 176.133, 107 175.452 C 107 174.771, 107.675 173.955, 108.500 173.638 C 109.325 173.322, 110 172.452, 110 171.706 C 110 170.959, 111.111 169.305, 112.469 168.029 C 113.827 166.753, 114.701 165.325, 114.410 164.855 C 114.120 164.385, 114.373 164, 114.972 164 C 115.572 164, 116.350 163.212, 116.700 162.250 C 117.051 161.287, 118.499 159.102, 119.919 157.393 C 124.911 151.383, 125.634 150.396, 126.283 148.706 C 126.643 147.768, 127.401 147, 127.969 147 C 128.536 147, 129 146.395, 129 145.655 C 129 144.915, 129.900 143.495, 131 142.500 C 132.100 141.505, 133 140.071, 133 139.314 C 133 138.557, 133.675 137.678, 134.500 137.362 C 135.325 137.045, 136 136.229, 136 135.548 C 136 134.867, 136.900 133.495, 138 132.500 C 139.100 131.505, 140 130.071, 140 129.314 C 140 128.557, 140.675 127.678, 141.500 127.362 C 142.325 127.045, 143 126.229, 143 125.548 C 143 124.867, 143.900 123.495, 145 122.500 C 146.100 121.505, 147 120.133, 147 119.452 C 147 118.771, 147.675 117.955, 148.500 117.638 C 149.325 117.322, 150 116.546, 150 115.913 C 150 115.281, 151.237 113.306, 152.750 111.525 C 158.007 105.332, 159 103.971, 159 102.957 C 159 102.396, 159.675 101.678, 160.500 101.362 C 161.325 101.045, 162 100.229, 162 99.548 C 162 98.867, 162.900 97.495, 164 96.500 C 165.100 95.505, 166 94.071, 166 93.314 C 166 92.557, 166.675 91.678, 167.500 91.362 C 168.325 91.045, 169 90.229, 169 89.548 C 169 88.867, 169.900 87.495, 171 86.500 C 172.100 85.505, 173 84.071, 173 83.314 C 173 82.557, 173.675 81.678, 174.500 81.362 C 175.325 81.045, 176 80.229, 176 79.548 C 176 78.867, 176.900 77.495, 178 76.500 C 179.100 75.505, 180 74.193, 180 73.586 C 180 72.978, 180.873 71.936, 181.939 71.270 C 183.006 70.604, 184.647 68.439, 185.586 66.459 C 186.526 64.479, 188.466 61.591, 189.897 60.041 C 193.494 56.146, 195 54.198, 195 53.437 C 195 53.080, 196.125 51.452, 197.500 49.818 C 202.251 44.172, 201.808 44, 182.500 44 C 168.507 44, 165 44.270, 165 45.345 C 165 46.085, 164.100 47.505, 163 48.500 C 161.900 49.495, 161 50.867, 161 51.548 C 161 52.229, 160.325 53.045, 159.500 53.362 C 158.675 53.678, 158 54.438, 158 55.050 C 158 56.200, 151.082 65.241, 149.750 65.833 C 149.338 66.017, 149 66.818, 149 67.615 C 149 68.411, 148.325 69.322, 147.500 69.638 C 146.675 69.955, 146 70.771, 146 71.452 C 146 72.133, 145.100 73.505, 144 74.500 C 142.900 75.495, 142 76.929, 142 77.686 C 142 78.443, 141.325 79.322, 140.500 79.638 C 139.675 79.955, 139 80.771, 139 81.452 C 139 82.133, 138.100 83.505, 137 84.500 C 135.900 85.495, 135 86.929, 135 87.686 C 135 88.443, 134.291 89.335, 133.423 89.668 C 132.556 90.001, 131.432 91.224, 130.926 92.386 C 129.423 95.835, 127.643 98.301, 125.197 100.324 C 123.931 101.371, 123.116 102.450, 123.387 102.721 C 123.658 102.991, 123.460 103.728, 122.947 104.357 C 122.434 104.985, 120.456 107.525, 118.552 110 C 116.647 112.475, 114.450 115.231, 113.670 116.125 C 112.889 117.019, 112.074 118.144, 111.859 118.625 C 110.574 121.502, 106.663 127, 105.901 127 C 105.406 127, 105 127.468, 105 128.040 C 105 129.360, 100.906 135.240, 99.250 136.300 C 98.563 136.740, 98 137.568, 98 138.141 C 98 138.713, 96.425 141.022, 94.500 143.271 C 92.575 145.520, 91 147.790, 91 148.315 C 91 148.841, 89.940 150.253, 88.644 151.454 C 87.348 152.656, 86.103 154.057, 85.878 154.569 C 84.703 157.239, 80.699 163, 80.018 163 C 79.586 163, 78.998 163.900, 78.710 165 C 78.283 166.634, 77.346 167, 73.594 167 C 69 167, 69 167, 69 105.500 L 69 44 55 44 L 41 44 41 181.500 M 307 187.500 L 307 309 318.500 309 L 330 309 330 187.500 L 330 66 318.500 66 L 307 66 307 187.500 M 187 74.500 C 186.315 75.325, 186.148 76.014, 186.628 76.030 C 187.107 76.047, 186.713 76.519, 185.750 77.080 C 184.787 77.641, 184 78.559, 184 79.120 C 184 79.682, 182.200 82.276, 180 84.885 C 177.800 87.494, 176 90.137, 176 90.758 C 176 91.379, 175.165 92.475, 174.143 93.193 C 173.122 93.912, 171.967 95.513, 171.576 96.750 C 171.185 97.987, 170.434 99, 169.908 99 C 169.381 99, 168.523 100.125, 168 101.500 C 167.477 102.875, 166.588 104, 166.025 104 C 165.461 104, 165 104.605, 165 105.345 C 165 106.085, 164.100 107.505, 163 108.500 C 161.900 109.495, 161 110.867, 161 111.548 C 161 112.229, 160.325 113.045, 159.500 113.362 C 158.675 113.678, 158 114.548, 158 115.294 C 158 116.041, 156.877 117.707, 155.504 118.996 C 154.131 120.286, 153.203 121.537, 153.442 121.776 C 153.681 122.014, 152.779 123.227, 151.438 124.470 C 150.097 125.712, 149 127.045, 149 127.431 C 149 128.327, 143.746 135.391, 142.750 135.833 C 142.338 136.017, 142 136.818, 142 137.615 C 142 138.411, 141.325 139.322, 140.500 139.638 C 139.675 139.955, 139 140.771, 139 141.452 C 139 142.133, 138.100 143.505, 137 144.500 C 135.900 145.495, 135 146.893, 135 147.605 C 135 148.318, 134.438 149.260, 133.750 149.700 C 132.184 150.702, 128 156.610, 128 157.819 C 128 158.315, 126.902 159.544, 125.560 160.552 C 124.218 161.560, 123.313 162.697, 123.549 163.079 C 123.785 163.461, 123.308 164.329, 122.489 165.009 C 121.670 165.689, 121 166.865, 121 167.622 C 121 168.380, 120.325 169, 119.500 169 C 118.675 169, 118 169.480, 118 170.067 C 118 170.654, 116.385 172.658, 114.410 174.520 C 111.319 177.435, 110.913 178.329, 111.490 180.953 C 111.858 182.629, 112.497 184, 112.910 184 C 113.324 184, 114.301 185.233, 115.081 186.741 C 115.861 188.248, 117.737 190.538, 119.250 191.830 C 120.763 193.121, 122 194.813, 122 195.589 C 122 196.365, 122.378 197, 122.839 197 C 123.301 197, 124.219 198.012, 124.879 199.250 C 126.882 203.005, 128.437 205.499, 129.735 207.037 C 133.412 211.394, 136 214.864, 136 215.437 C 136 215.793, 136.445 216.628, 136.990 217.292 C 144.279 226.187, 147.771 230.806, 148.298 232.250 C 148.650 233.212, 149.401 234, 149.969 234 C 150.536 234, 151 234.605, 151 235.345 C 151 236.085, 151.900 237.505, 153 238.500 C 154.100 239.495, 155 240.915, 155 241.655 C 155 242.395, 155.406 243, 155.901 243 C 156.663 243, 160.574 248.498, 161.859 251.375 C 162.074 251.856, 162.889 252.981, 163.670 253.875 C 164.450 254.769, 166.647 257.525, 168.552 260 C 170.456 262.475, 172.461 265.044, 173.007 265.708 C 173.553 266.372, 174 267.210, 174 267.569 C 174 267.928, 175.800 270.372, 178 273 C 180.200 275.628, 182 278.072, 182 278.431 C 182 279.140, 182.357 279.620, 187.069 285.250 C 190.207 289, 190.207 289, 203.437 289 C 210.713 289, 216.955 288.712, 217.307 288.360 C 217.659 288.008, 216.609 286.031, 214.973 283.966 C 213.338 281.901, 212 279.879, 212 279.471 C 212 279.063, 210.903 277.712, 209.562 276.470 C 208.221 275.227, 207.319 274.014, 207.558 273.776 C 207.797 273.537, 206.869 272.286, 205.496 270.996 C 204.123 269.707, 203 268.077, 203 267.375 C 203 266.674, 202.438 265.740, 201.750 265.300 C 200.438 264.461, 196 258.471, 196 257.540 C 196 257.243, 195.317 256.212, 194.483 255.250 C 190.003 250.083, 187.101 246.155, 185.607 243.239 C 184.689 241.445, 183.051 239.424, 181.969 238.748 C 180.886 238.072, 180 237.022, 180 236.414 C 180 235.807, 179.100 234.495, 178 233.500 C 176.900 232.505, 176 231.133, 176 230.452 C 176 229.771, 175.325 228.955, 174.500 228.638 C 173.675 228.322, 173 227.443, 173 226.686 C 173 225.929, 172.100 224.495, 171 223.500 C 169.900 222.505, 169 221.133, 169 220.452 C 169 219.771, 168.325 218.955, 167.500 218.638 C 166.675 218.322, 166 217.443, 166 216.686 C 166 215.929, 165.100 214.495, 164 213.500 C 162.900 212.505, 162 211.133, 162 210.452 C 162 209.771, 161.325 208.955, 160.500 208.638 C 159.675 208.322, 159 207.411, 159 206.615 C 159 205.818, 158.662 205.017, 158.250 204.833 C 157.254 204.391, 152 197.327, 152 196.431 C 152 196.045, 150.875 194.687, 149.500 193.412 C 148.125 192.138, 147 190.694, 147 190.203 C 147 189.712, 146.100 188.495, 145 187.500 C 143.900 186.505, 143 185.247, 143 184.705 C 143 184.164, 142.259 183.179, 141.354 182.517 C 139.852 181.419, 139.918 181.015, 142.104 177.907 C 143.422 176.033, 144.838 174.350, 145.250 174.167 C 145.662 173.983, 146 173.384, 146 172.835 C 146 172.286, 147.575 169.915, 149.500 167.565 C 151.425 165.216, 153 162.800, 153 162.197 C 153 161.593, 153.563 160.740, 154.250 160.300 C 155.720 159.359, 160 153.421, 160 152.322 C 160 151.905, 161.015 150.649, 162.256 149.532 C 163.497 148.414, 165.185 146.154, 166.006 144.508 C 166.828 142.862, 168.512 140.561, 169.750 139.393 C 170.988 138.226, 172 136.955, 172 136.569 C 172 135.673, 177.254 128.609, 178.250 128.167 C 178.662 127.983, 179 127.182, 179 126.385 C 179 125.589, 179.675 124.678, 180.500 124.362 C 181.325 124.045, 182 123.229, 182 122.548 C 182 121.867, 182.900 120.495, 184 119.500 C 185.100 118.505, 186 117.071, 186 116.314 C 186 115.557, 186.675 114.678, 187.500 114.362 C 188.325 114.045, 189 113.229, 189 112.548 C 189 111.867, 189.900 110.495, 191 109.500 C 192.100 108.505, 193 107.071, 193 106.314 C 193 105.557, 193.675 104.678, 194.500 104.362 C 195.325 104.045, 196 103.229, 196 102.548 C 196 101.867, 196.900 100.495, 198 99.500 C 199.100 98.505, 200 97.288, 200 96.797 C 200 96.306, 201.019 94.913, 202.264 93.702 C 203.509 92.491, 205.197 90.154, 206.014 88.508 C 206.831 86.862, 208.512 84.561, 209.750 83.393 C 210.988 82.226, 212 80.782, 212 80.185 C 212 79.588, 212.616 78.740, 213.369 78.300 C 214.122 77.860, 215.052 76.487, 215.436 75.250 C 216.135 73, 216.135 73, 202.190 73 C 191.014 73, 187.998 73.298, 187 74.500" stroke="none" fill="#000000" fill-rule="evenodd"/><path d="" stroke="none" fill="#000000" fill-rule="evenodd"/></svg>