<svg xmlns="http://www.w3.org/2000/svg" width="510" height="489" viewBox="0 0 510 489" version="1.1"><path d="M 210 182.393 C 197.426 185.193, 187.588 192.999, 181.785 204.782 L 178.500 211.453 178.208 252.826 C 177.880 299.230, 178.007 300.346, 184.750 310.377 C 189.210 317.012, 196.840 323.011, 204.760 326.109 C 210.326 328.287, 211.727 328.363, 251 328.628 C 274.542 328.786, 294.222 328.481, 298 327.899 C 311.891 325.760, 322.426 317.987, 328.734 305.223 L 332.500 297.604 332.500 255.052 L 332.500 212.500 329.315 205.777 C 323.349 193.182, 312.268 184.460, 299.114 182.005 C 291.184 180.525, 216.935 180.848, 210 182.393 M 210.670 199.602 C 204.813 201.427, 197.849 208.016, 195.879 213.595 C 194.800 216.651, 194.500 225.763, 194.500 255.500 C 194.500 297.746, 194.448 297.381, 201.533 304.467 C 208.614 311.548, 208.054 311.468, 252.846 311.793 C 300.121 312.136, 301.467 311.953, 309.019 304.153 C 311.631 301.455, 314.057 297.753, 314.769 295.377 C 316.448 289.774, 316.508 220.429, 314.839 214.858 C 313.337 209.843, 307.882 203.518, 302.643 200.716 C 298.576 198.541, 297.739 198.496, 257 198.299 C 222.443 198.131, 214.692 198.349, 210.670 199.602 M 233.229 216.256 C 230.941 218.692, 210 283.816, 210 288.497 C 210 292.339, 214.149 296, 218.502 296 C 223.348 296, 226.023 292.907, 228.385 284.575 L 230.269 277.926 238.795 278.213 L 247.320 278.500 249.657 285.500 C 252.297 293.405, 254.735 296, 259.522 296 C 261.980 296, 263.483 295.214, 265.411 292.923 C 266.835 291.231, 268 289.161, 268 288.323 C 268 287.485, 263.237 271.432, 257.415 252.650 C 245.950 215.663, 245.142 214, 238.619 214 C 236.518 214, 234.591 214.807, 233.229 216.256 M 285.924 216.581 L 283.500 219.162 283.500 255.168 L 283.500 291.174 286.306 293.587 C 289.892 296.671, 294.108 296.671, 297.694 293.587 L 300.500 291.173 300.500 255.167 L 300.500 219.161 298.076 216.581 C 294.735 213.025, 289.265 213.025, 285.924 216.581 M 237.579 254.677 C 237.208 256.230, 236.671 258.288, 236.385 259.250 C 235.972 260.642, 236.476 261, 238.852 261 C 241.817 261, 241.831 260.972, 240.826 257.250 C 239.450 252.149, 238.384 251.305, 237.579 254.677" stroke="none" fill="#1695fa" fill-rule="evenodd"/><path d="M 181.500 42.880 C 172.755 45.189, 164.045 52.664, 159.513 61.750 L 156.895 67 149.697 67.022 C 144.893 67.037, 141.170 67.651, 138.500 68.871 C 133.265 71.262, 126.430 78.788, 125.081 83.645 C 124.491 85.772, 124.009 96.217, 124.006 106.945 L 124 126.391 126.687 129.195 C 130.196 132.858, 135.089 133.002, 138.545 129.545 C 140.963 127.128, 141 126.831, 141 109.695 C 141 100.126, 141.472 90.943, 142.050 89.287 C 143.333 85.605, 146.600 83.999, 152.797 84.004 C 157.429 84.007, 157.528 84.075, 159.351 88.507 C 162.187 95.406, 168.925 102.233, 176.200 105.581 C 189.148 111.540, 203.621 108.655, 213.944 98.058 C 233.553 77.926, 219.710 43.589, 191.500 42.386 C 187.650 42.222, 183.150 42.444, 181.500 42.880 M 312.500 42.880 C 298.086 46.686, 287.629 59.950, 287.570 74.500 C 287.528 85.087, 290.045 91.222, 297.487 98.668 C 302.824 104.009, 304.620 105.131, 310.867 107.028 C 316.480 108.733, 319.351 109.071, 323.792 108.551 C 335.279 107.205, 346.094 99.479, 350.921 89.170 L 353.342 84 358.716 84 C 363.089 84, 364.548 84.457, 366.545 86.455 L 369 88.909 369 140.500 L 369 192.091 366.545 194.545 C 364.109 196.982, 363.946 197, 344.838 197 L 325.584 197 321.581 193.250 L 317.578 189.500 321.855 194.299 C 326.321 199.311, 331.999 210.060, 331.997 213.500 C 331.996 215.446, 332.489 215.486, 350.248 214.978 C 370.905 214.387, 373.495 213.622, 380.278 206.114 C 387.039 198.631, 387.120 197.785, 386.792 138.350 L 386.500 85.500 384.157 81 C 379.124 71.330, 372.003 66.993, 360.667 66.691 L 353.500 66.500 350.750 61 C 347.503 54.506, 340.989 48.165, 334.302 44.988 C 329.128 42.530, 317.926 41.447, 312.500 42.880 M 183.445 60.959 C 179.901 62.394, 175.242 68.605, 174.525 72.852 C 173.113 81.207, 179.755 89.792, 188.341 90.712 C 193.658 91.281, 200.683 87.707, 203.404 83.048 C 209.196 73.131, 201.542 59.906, 190.102 60.063 C 187.571 60.098, 184.575 60.501, 183.445 60.959 M 245.500 92.391 C 236.665 95.169, 228.578 102.353, 224.611 110.949 C 221.442 117.813, 221.636 131.660, 224.996 138.500 C 228.193 145.007, 234.788 151.531, 241.152 154.479 L 246.230 156.832 246.063 168.916 L 245.897 181 254.948 181 L 264 181 264.017 168.750 L 264.034 156.500 269.567 154.104 C 287.321 146.417, 293.961 122.652, 282.958 106.175 C 278.589 99.633, 273.798 95.871, 266.117 92.952 C 260.256 90.725, 251.552 90.489, 245.500 92.391 M 69.932 116.085 C 59.813 117.629, 49.190 125.939, 44.697 135.824 C 41.555 142.736, 41.708 155.646, 45.012 162.500 C 48.262 169.241, 56.367 177.211, 62.261 179.462 L 67 181.272 67 204.940 C 67 228.302, 67.033 228.673, 69.549 233.722 C 70.951 236.535, 73.651 240.022, 75.549 241.470 C 82.883 247.064, 82.239 247, 131.468 247 L 177 247 177 254.971 L 177 262.943 130.170 263.221 L 83.341 263.500 78.447 266.526 C 75.418 268.400, 72.400 271.417, 70.526 274.445 L 67.500 279.337 67.202 304.051 L 66.904 328.765 62.480 330.455 C 56.194 332.855, 48.926 339.790, 45.503 346.655 C 42.985 351.703, 42.583 353.658, 42.550 361 C 42.518 368.279, 42.905 370.301, 45.244 375.072 C 48.578 381.870, 53.855 387.327, 60.500 390.849 C 64.946 393.205, 66.608 393.499, 75.500 393.499 C 86.531 393.500, 90.306 392.182, 97.591 385.786 C 115.142 370.376, 111.118 341.509, 90.007 331.372 L 84.026 328.500 84.013 307.700 C 83.999 285.242, 84.648 281.863, 89.210 280.641 C 90.469 280.303, 110.737 280.021, 134.250 280.014 L 177 280 177 287.500 L 177 295 161.250 295.006 C 152.588 295.009, 143.824 295.477, 141.775 296.046 C 136.075 297.629, 129.914 302.907, 126.793 308.882 L 124 314.228 124 368.987 C 124 430.630, 123.755 428.487, 131.692 436.201 C 136.933 441.295, 141.558 442.997, 150.218 443.017 L 157.500 443.034 159.847 448.458 C 169.339 470.387, 199.488 474.435, 215.346 455.909 C 226.040 443.416, 225.537 424.186, 214.201 412.119 C 207.255 404.725, 199.682 401.486, 189.500 401.553 C 182.894 401.597, 180.506 402.085, 175.798 404.353 C 169.131 407.565, 162.039 414.955, 159.351 421.493 L 157.500 425.993 152.306 425.996 C 148.254 425.999, 146.494 425.469, 144.306 423.587 L 141.500 421.175 141.205 371.337 C 141.042 343.927, 141.166 320.476, 141.480 319.225 C 141.794 317.973, 142.939 316.061, 144.025 314.975 C 145.859 313.141, 147.418 313, 165.800 313 C 180.291 313, 185.943 313.335, 186.879 314.250 C 187.583 314.938, 186.555 313.103, 184.595 310.173 C 178.173 300.573, 178 299.126, 178 255 C 178 210.874, 178.173 209.427, 184.595 199.827 C 186.555 196.897, 187.583 195.063, 186.879 195.750 C 185.272 197.320, 147.864 197.533, 144.978 195.988 C 141.893 194.337, 141.011 188.505, 141.006 169.705 C 141 152.147, 140.967 151.876, 138.545 149.455 C 135.253 146.162, 130.197 146.161, 126.646 149.452 L 124 151.905 124.022 173.702 C 124.041 192.637, 124.283 196.025, 125.867 199.500 C 128.542 205.367, 132.170 209.224, 137.646 212.021 C 142.159 214.326, 143.713 214.523, 159.750 214.833 L 177 215.165 177 222.583 L 177 230 134.047 230 C 104.698 230, 90.322 229.648, 88.657 228.890 C 84.482 226.987, 84 224.217, 84 202.131 L 84 181.357 88.820 179.178 C 96.132 175.874, 101.541 170.678, 105.013 163.625 C 111.669 150.105, 109.710 137.019, 99.377 125.972 C 92.072 118.163, 80.901 114.412, 69.932 116.085 M 423.698 117.387 C 414.494 120.808, 406.569 129.003, 403.403 138.373 C 401.012 145.455, 401.855 156.915, 405.252 163.500 C 408.551 169.894, 415.191 176.327, 421.250 178.999 L 426 181.094 426 203.092 L 426 225.091 423.545 227.545 C 421.138 229.953, 420.775 230, 404.601 230 C 388.925 230, 387.985 230.111, 385.555 232.250 C 381.618 235.715, 381.250 239.955, 384.547 243.874 L 387.272 247.112 407.386 246.806 C 427.333 246.503, 427.535 246.477, 431.670 243.788 C 433.964 242.296, 437.054 239.484, 438.537 237.540 C 443.450 231.100, 443.909 228.250, 443.956 203.921 L 444 181.342 449.170 178.921 C 455.556 175.931, 462.047 169.574, 465.151 163.270 C 467.142 159.228, 467.500 156.975, 467.500 148.500 C 467.500 139.283, 467.268 138.080, 464.532 133.141 C 461.305 127.316, 455.787 122.025, 449.500 118.728 C 444.355 116.029, 429.436 115.254, 423.698 117.387 M 428.405 134.904 C 419.922 138.756, 416.853 150.186, 422.362 157.408 C 428.632 165.628, 438.477 166.599, 445.731 159.712 C 453.736 152.112, 451.695 139.487, 441.729 134.964 C 436.437 132.561, 433.591 132.548, 428.405 134.904 M 210.670 199.602 C 204.813 201.427, 197.849 208.016, 195.879 213.595 C 194.800 216.651, 194.500 225.763, 194.500 255.500 C 194.500 297.746, 194.448 297.381, 201.533 304.467 C 208.614 311.548, 208.054 311.468, 252.846 311.793 C 300.121 312.136, 301.467 311.953, 309.019 304.153 C 311.631 301.455, 314.057 297.753, 314.769 295.377 C 316.448 289.774, 316.508 220.429, 314.839 214.858 C 313.337 209.843, 307.882 203.518, 302.643 200.716 C 298.576 198.541, 297.739 198.496, 257 198.299 C 222.443 198.131, 214.692 198.349, 210.670 199.602 M 233.229 216.256 C 230.941 218.692, 210 283.816, 210 288.497 C 210 292.339, 214.149 296, 218.502 296 C 223.348 296, 226.023 292.907, 228.385 284.575 L 230.269 277.926 238.795 278.213 L 247.320 278.500 249.657 285.500 C 252.297 293.405, 254.735 296, 259.522 296 C 261.980 296, 263.483 295.214, 265.411 292.923 C 266.835 291.231, 268 289.161, 268 288.323 C 268 287.485, 263.237 271.432, 257.415 252.650 C 245.950 215.663, 245.142 214, 238.619 214 C 236.518 214, 234.591 214.807, 233.229 216.256 M 285.924 216.581 L 283.500 219.162 283.500 255.168 L 283.500 291.174 286.306 293.587 C 289.892 296.671, 294.108 296.671, 297.694 293.587 L 300.500 291.173 300.500 255.167 L 300.500 219.161 298.076 216.581 C 294.735 213.025, 289.265 213.025, 285.924 216.581 M 333.116 240.250 C 333.180 245.887, 333.438 249.713, 333.689 248.750 C 334.098 247.187, 335.666 247, 348.399 247 C 362.004 247, 362.750 246.895, 364.826 244.686 C 367.894 241.420, 367.762 235.671, 364.545 232.455 C 362.164 230.073, 361.655 230, 347.545 230 L 333 230 333.116 240.250 M 237.579 254.677 C 237.208 256.230, 236.671 258.288, 236.385 259.250 C 235.972 260.642, 236.476 261, 238.852 261 C 241.817 261, 241.831 260.972, 240.826 257.250 C 239.450 252.149, 238.384 251.305, 237.579 254.677 M 333 270.525 L 333 280 377.045 280 L 421.091 280 423.545 282.455 L 426 284.909 426 306.776 L 426 328.643 420.995 330.905 C 414.810 333.701, 408.047 340.329, 404.888 346.691 C 402.868 350.759, 402.504 352.963, 402.525 361 C 402.555 372.234, 404.747 377.871, 411.724 384.661 C 418.826 391.572, 423.903 393.500, 435 393.500 C 446.112 393.500, 451.674 391.378, 458.526 384.526 C 465.378 377.674, 467.500 372.112, 467.500 361 C 467.500 352.937, 467.129 350.746, 465.047 346.516 C 461.929 340.179, 455.360 333.778, 449.048 330.925 L 444.126 328.701 443.813 304.600 C 443.461 277.488, 443.053 275.765, 435.382 269.030 C 427.723 262.306, 429.103 262.464, 381.500 262.832 C 352.885 263.054, 337.580 262.811, 335.750 262.107 L 333 261.050 333 270.525 M 331.997 296.500 C 331.998 298.163, 330.647 301.298, 325.206 312.250 C 325.001 312.663, 333.838 313, 344.844 313 L 364.855 313 366.927 315.635 C 368.673 317.854, 369 319.680, 369 327.201 C 369 337.459, 369.836 339.616, 374.580 341.598 C 377.535 342.832, 378.461 342.834, 381.391 341.610 C 386.114 339.636, 387.380 335.294, 386.784 323.102 C 386.126 309.660, 382.344 302.915, 372.513 297.649 C 368.953 295.743, 366.440 295.444, 350.248 295 C 332.496 294.514, 331.996 294.555, 331.997 296.500 M 246.506 328.990 C 246.169 329.535, 245.971 335.197, 246.065 341.573 L 246.237 353.165 241.155 355.520 C 234.801 358.463, 228.206 364.978, 224.976 371.500 C 221.610 378.297, 221.434 392.148, 224.626 399 C 227.742 405.686, 234.043 412.188, 240.644 415.530 C 245.766 418.123, 247.565 418.495, 255 418.497 C 262.275 418.500, 264.316 418.099, 269.164 415.719 C 286.482 407.214, 293.314 387.362, 284.794 370.303 C 281.985 364.677, 274.329 357.498, 268.452 354.979 L 263.885 353.022 264.193 340.509 L 264.500 327.996 255.809 327.998 C 251.029 327.999, 246.843 328.446, 246.506 328.990 M 373.775 358.559 C 372.276 359.372, 370.589 360.900, 370.025 361.953 C 369.394 363.133, 369 374.801, 369 392.323 C 369 425.991, 369.273 425.063, 359.163 425.795 C 353.831 426.180, 352.949 425.994, 352.418 424.369 C 348.383 412.027, 336.680 402.772, 323.345 401.378 C 307.313 399.703, 291.481 411.596, 288.018 427.917 C 284.869 442.755, 292.768 458.251, 306.845 464.848 C 314.894 468.620, 326.092 468.627, 334.120 464.864 C 343.254 460.582, 348.655 454.792, 351.949 445.750 C 352.918 443.091, 353.192 443, 360.296 443 C 366.328 443, 368.611 442.508, 373.064 440.250 C 379.712 436.878, 384.424 430.915, 385.908 423.994 C 387.317 417.425, 387.369 367.357, 385.971 363.348 C 384.958 360.442, 380.476 356.962, 377.846 357.040 C 377.106 357.062, 375.274 357.746, 373.775 358.559 M 314.450 420.407 C 304.751 424.631, 302.240 437.452, 309.573 445.312 C 318.002 454.348, 333.716 449.686, 335.683 437.565 C 337.721 425.004, 325.875 415.431, 314.450 420.407" stroke="none" fill="#fbbc2f" fill-rule="evenodd"/></svg>