<?xml version="1.0" standalone="no"?>
<!DOCTYPE svg PUBLIC "-//W3C//DTD SVG 20010904//EN"
 "http://www.w3.org/TR/2001/REC-SVG-20010904/DTD/svg10.dtd">
<svg version="1.0" xmlns="http://www.w3.org/2000/svg"
 width="1600.000000pt" height="1200.000000pt" viewBox="0 0 1600.000000 1200.000000"
 preserveAspectRatio="xMidYMid meet">

<g transform="translate(0.000000,1200.000000) scale(0.100000,-0.100000)"
fill="#000000" stroke="none">
<path d="M7552 9185 c-538 -62 -1008 -252 -1442 -585 -136 -105 -399 -372
-506 -515 -275 -368 -447 -757 -529 -1200 -25 -139 -45 -321 -45 -420 l0 -61
227 -217 227 -217 282 0 c155 0 296 -3 313 -6 27 -6 31 -11 31 -39 0 -25 -5
-34 -22 -39 -13 -3 -143 -6 -290 -6 -251 0 -267 -1 -273 -18 -10 -33 -285
-1094 -285 -1101 0 -4 61 -50 135 -101 l135 -94 0 -271 0 -270 65 -85 c36 -46
65 -87 65 -91 0 -4 -16 -20 -36 -36 -35 -28 -37 -34 -54 -134 -10 -57 -16
-107 -14 -111 2 -3 38 -26 80 -50 l76 -43 -6 -90 c-20 -295 -20 -293 -1 -341
10 -27 39 -68 71 -99 148 -148 416 -184 711 -96 l68 21 151 177 c84 98 237
279 340 403 104 124 509 601 899 1059 391 458 711 836 713 841 2 5 -73 125
-167 267 l-169 258 -834 5 c-458 3 -834 6 -835 8 -2 1 -3 17 -3 36 0 30 4 34
31 40 17 3 388 6 823 6 l792 0 162 -90 c89 -50 168 -93 175 -96 10 -3 16 6 20
30 11 67 69 168 137 237 213 217 556 212 763 -11 47 -51 101 -140 120 -202 5
-14 19 -13 144 13 151 31 372 84 377 90 2 2 6 24 7 48 l4 44 -150 57 c-197 74
-286 113 -547 236 -210 98 -218 101 -234 83 -30 -33 -97 -59 -152 -59 -96 0
-166 45 -208 135 -87 183 76 385 260 322 98 -34 166 -122 166 -217 l0 -47 213
-103 c281 -137 332 -160 529 -240 l167 -68 25 39 c14 21 26 41 26 43 0 3 -50
77 -111 165 l-111 161 -41 -23 c-61 -32 -201 -32 -271 1 -141 65 -236 215
-236 373 0 52 -3 61 -22 69 -13 4 -122 47 -243 93 l-219 85 -15 -21 c-33 -50
-100 -111 -152 -137 -52 -27 -129 -49 -129 -37 0 3 21 51 46 108 l47 102 -45
269 c-37 221 -42 268 -30 268 8 0 41 -12 74 -27 40 -18 64 -24 73 -17 44 31
184 150 184 156 1 4 -54 71 -121 149 -68 78 -132 154 -144 168 l-21 25 -52
-52 c-29 -29 -55 -52 -59 -52 -4 0 -34 159 -65 353 -32 193 -61 362 -64 375
-5 21 -3 22 23 12 18 -7 30 -8 32 -2 1 5 34 71 71 147 67 132 68 137 47 145
-48 18 -345 82 -469 101 -175 27 -532 34 -705 14z m1103 -2516 c59 -70 70
-106 70 -219 0 -94 -3 -110 -27 -155 -33 -63 -80 -108 -140 -135 -52 -23 -158
-37 -180 -24 -12 7 7 57 111 286 69 153 129 278 133 278 3 0 18 -14 33 -31z"/>
<path d="M8868 9008 c-24 -37 -94 -178 -122 -247 l-26 -64 36 -40 c20 -22 50
-69 67 -106 17 -36 31 -67 31 -68 1 -1 57 -13 126 -27 69 -14 183 -41 254 -61
70 -19 132 -35 136 -35 4 0 17 16 28 34 73 123 305 92 519 -68 160 -121 243
-275 203 -380 -9 -24 3 -39 182 -226 191 -199 192 -200 235 -200 27 0 43 5 43
12 0 7 -29 102 -65 213 l-64 200 -87 110 c-139 174 -339 371 -497 489 l-37 28
-21 -26 c-18 -23 -27 -26 -84 -26 -197 0 -475 176 -475 301 0 27 6 42 21 52
19 14 14 17 -83 55 -88 34 -202 73 -284 96 -15 5 -26 0 -36 -16z"/>
<path d="M8860 8358 c0 -18 -5 -50 -11 -71 l-10 -38 73 -82 c59 -66 247 -284
253 -295 1 -1 65 40 142 90 77 51 148 98 157 103 15 9 14 15 -15 53 -17 24
-42 69 -55 100 l-23 57 -83 22 c-67 19 -406 93 -424 93 -2 0 -4 -15 -4 -32z"/>
<path d="M9500 7948 c-59 -37 -222 -150 -244 -169 -5 -4 24 -49 66 -101 54
-68 345 -449 363 -476 4 -5 82 10 95 18 11 7 9 63 -9 307 -28 390 -25 372 -67
389 -19 8 -56 28 -83 44 -26 17 -50 30 -52 29 -2 0 -33 -19 -69 -41z"/>
<path d="M10020 7869 c-14 -6 -58 -9 -98 -7 l-72 3 5 -55 c8 -74 45 -560 45
-585 0 -14 13 -25 47 -39 25 -11 74 -41 108 -67 l62 -47 54 30 c30 17 103 52
162 78 60 27 110 50 113 52 2 3 -3 25 -13 50 -16 44 -18 46 -91 69 -68 21 -75
22 -83 6 -13 -23 -73 -37 -111 -26 -84 24 -151 99 -151 170 0 48 23 76 69 85
50 9 136 -35 173 -89 24 -35 40 -46 96 -65 37 -13 68 -22 70 -20 2 2 10 21 19
43 l17 39 -193 193 c-106 106 -195 193 -198 192 -3 0 -16 -5 -30 -10z"/>
<path d="M9067 7625 c-48 -42 -87 -78 -87 -81 0 -2 11 -21 25 -42 37 -56 55
-118 55 -186 l0 -62 242 -98 c143 -57 244 -92 246 -86 2 6 15 24 29 41 l25 30
-93 122 c-175 230 -340 437 -347 437 -4 0 -47 -34 -95 -75z"/>
<path d="M10391 7100 c-57 -28 -129 -66 -161 -85 l-57 -35 18 -52 c10 -29 18
-69 19 -90 l0 -36 187 -46 c103 -25 190 -42 194 -38 3 4 14 78 23 165 l18 158
-29 22 c-15 12 -43 36 -61 54 -19 18 -37 33 -40 33 -4 0 -54 -23 -111 -50z"/>
<path d="M10705 6988 c-2 -7 -8 -65 -15 -128 -6 -63 -13 -127 -16 -142 -4 -20
-1 -28 15 -32 12 -3 29 -8 39 -11 12 -3 23 5 36 29 10 18 29 39 42 46 13 8 24
18 24 23 0 19 -74 212 -85 219 -16 12 -35 9 -40 -4z"/>
<path d="M10850 6990 c-14 -3 -25 -10 -25 -15 0 -6 15 -52 34 -103 31 -85 51
-115 67 -99 7 7 -36 216 -45 221 -3 1 -17 0 -31 -4z"/>
<path d="M10165 6653 c-32 -54 -42 -31 96 -229 l98 -142 46 24 c25 12 70 26
99 29 l53 7 7 54 c3 30 9 94 13 143 l6 88 -184 36 c-101 20 -189 37 -196 37
-6 0 -23 -21 -38 -47z"/>
<path d="M10652 6488 c-17 -169 -17 -165 21 -184 80 -40 127 -120 127 -215 0
-21 3 -40 8 -42 4 -2 26 -2 50 1 37 4 46 10 75 51 32 46 32 47 35 183 l4 138
-31 -6 c-84 -17 -159 36 -186 131 -12 38 -22 55 -33 55 -9 0 -26 3 -38 6 -20
5 -21 0 -32 -118z"/>
<path d="M9043 5982 c-139 -50 -221 -176 -211 -322 6 -82 34 -144 91 -200 70
-71 107 -85 222 -85 117 0 158 16 231 91 61 64 87 138 82 234 -5 84 -27 137
-84 200 -78 86 -221 121 -331 82z"/>
<path d="M10840 5973 c-54 -8 -70 -14 -70 -24 0 -6 -16 -37 -35 -68 -67 -111
-176 -198 -284 -225 l-45 -12 -74 -165 c-40 -90 -81 -183 -92 -207 l-19 -42
39 -20 c22 -11 47 -34 55 -50 9 -17 18 -30 21 -30 8 0 111 67 170 111 44 32
55 47 68 91 31 107 121 227 216 289 42 27 49 39 89 138 l44 109 -22 27 c-11
15 -21 41 -21 56 0 16 -3 28 -7 28 -5 -1 -19 -3 -33 -6z"/>
<path d="M10130 5824 c-25 -8 -135 -37 -244 -64 -109 -27 -200 -51 -201 -52
-2 -2 -8 -40 -14 -86 -13 -98 -39 -165 -98 -249 -52 -75 -109 -123 -198 -168
l-66 -33 68 -54 c133 -105 118 -97 160 -82 46 16 137 17 180 1 182 -67 240
-295 113 -440 -65 -74 -153 -100 -286 -84 -16 1 -58 -41 -177 -181 -87 -100
-157 -184 -157 -187 0 -2 9 -19 20 -37 11 -19 21 -54 24 -79 l4 -44 78 -33
c44 -18 112 -42 152 -53 l73 -20 47 27 c86 49 236 156 337 240 92 75 293 272
270 262 -5 -2 -36 -16 -67 -31 -32 -15 -82 -38 -111 -51 -36 -16 -62 -37 -81
-65 -49 -70 -155 -142 -238 -160 -55 -13 -96 -2 -121 30 -29 39 -10 94 59 168
89 97 236 159 305 131 16 -7 29 -15 29 -19 0 -3 4 -12 8 -19 11 -16 112 26
252 104 78 44 107 66 139 109 23 30 41 56 41 58 0 3 -21 7 -47 11 -27 3 -84
21 -129 40 l-80 33 -40 -33 c-21 -19 -64 -47 -95 -64 l-57 -30 15 51 c10 35
14 79 11 134 -5 101 -39 177 -111 249 l-49 49 29 23 c41 35 140 82 203 97 l55
14 92 199 c50 109 92 207 92 216 1 9 -8 19 -19 23 -29 9 -89 84 -102 127 -6
21 -14 38 -17 37 -3 0 -26 -7 -51 -15z m-73 -226 c47 -44 21 -145 -49 -188
-98 -60 -188 21 -138 124 38 80 135 113 187 64z"/>
<path d="M10534 5187 c-16 -13 -66 -49 -111 -81 -78 -54 -83 -59 -98 -114 -9
-31 -27 -76 -41 -99 -13 -23 -24 -46 -24 -50 0 -13 93 -50 170 -68 78 -18 69
-26 166 141 62 106 93 191 94 250 0 20 -3 21 -40 11 -35 -10 -42 -9 -63 11
l-24 23 -29 -24z"/>
<path d="M9550 4918 c-57 -39 -75 -72 -75 -138 0 -66 18 -99 75 -137 46 -32
124 -32 171 0 37 24 79 97 79 137 0 40 -42 113 -79 137 -47 32 -125 32 -171 1z"/>
<path d="M8848 3726 c-75 -88 -133 -162 -128 -164 14 -5 242 56 363 98 149 51
348 140 341 151 -3 5 -13 9 -22 9 -9 1 -57 16 -105 34 l-88 34 -36 -19 c-47
-24 -104 -24 -151 0 l-37 18 -137 -161z"/>
</g>
</svg>
