<?xml version="1.0" standalone="no"?>
<!DOCTYPE svg PUBLIC "-//W3C//DTD SVG 20010904//EN"
 "http://www.w3.org/TR/2001/REC-SVG-20010904/DTD/svg10.dtd">
<svg version="1.0" xmlns="http://www.w3.org/2000/svg"
 width="225.000000pt" height="225.000000pt" viewBox="0 0 225.000000 225.000000"
 preserveAspectRatio="xMidYMid meet">

<g transform="translate(0.000000,225.000000) scale(0.100000,-0.100000)"
fill="#000000" stroke="none">
<path d="M690 1555 c0 -3 0 -182 0 -397 l-1 -393 36 -3 35 -3 0 180 c0 166 1
181 18 181 11 0 64 -66 146 -180 l130 -180 44 0 c31 0 43 4 39 13 -2 6 -66 96
-141 200 l-137 187 31 43 c16 23 59 83 95 132 115 159 155 216 155 220 0 3
-20 5 -44 5 l-45 0 -128 -179 c-80 -113 -135 -180 -145 -180 -17 -1 -18 14
-18 179 l0 180 -35 0 c-19 0 -35 -2 -35 -5z"/>
<path d="M1003 1316 l-112 -154 46 -64 c175 -240 182 -248 219 -248 42 0 50
-16 -83 168 -63 87 -101 147 -96 155 4 7 51 74 105 149 54 76 98 140 98 143 0
3 -15 5 -33 5 -31 0 -40 -9 -144 -154z"/>
</g>
</svg>
