<?xml version="1.0" standalone="no"?>
<!DOCTYPE svg PUBLIC "-//W3C//DTD SVG 20010904//EN"
 "http://www.w3.org/TR/2001/REC-SVG-20010904/DTD/svg10.dtd">
<svg version="1.0" xmlns="http://www.w3.org/2000/svg"
 width="1080.000000pt" height="1350.000000pt" viewBox="0 0 1080.000000 1350.000000"
 preserveAspectRatio="xMidYMid meet">

<g transform="translate(0.000000,1350.000000) scale(0.100000,-0.100000)"
fill="#000000" stroke="none">
<path d="M0 6750 l0 -6750 5400 0 5400 0 0 6750 0 6750 -5400 0 -5400 0 0
-6750z m5070 375 c0 -190 -4 -295 -10 -295 -6 0 -10 53 -10 140 l0 140 -125 0
c-104 0 -125 2 -125 15 0 13 21 15 125 15 l125 0 0 140 c0 87 4 140 10 140 6
0 10 -105 10 -295z m240 243 l1 -53 48 53 c39 43 53 52 81 52 l34 0 -51 -52
-52 -53 50 -67 c27 -37 49 -70 49 -73 0 -3 -14 -5 -30 -5 -25 0 -37 9 -66 50
-20 28 -42 49 -48 47 -6 -2 -12 -25 -14 -50 -3 -42 -6 -47 -28 -47 l-24 0 0
125 0 125 25 0 c23 0 25 -3 25 -52z m369 -66 c22 -66 41 -122 41 -125 0 -4
-13 -7 -29 -7 -23 0 -30 5 -33 23 -3 19 -10 22 -50 25 -44 3 -48 1 -54 -22 -5
-21 -12 -26 -36 -26 -25 0 -29 3 -23 18 4 9 20 55 37 101 49 138 45 131 76
131 28 0 31 -4 71 -118z m234 109 c13 -5 30 -23 37 -41 12 -28 11 -34 -8 -60
-14 -18 -17 -30 -10 -32 6 -2 14 -27 18 -56 6 -52 6 -52 -22 -52 -22 0 -28 5
-28 23 0 54 -10 67 -51 67 l-39 0 0 -45 c0 -41 -2 -45 -25 -45 l-25 0 0 125 0
125 64 0 c36 0 76 -4 89 -9z m147 -80 c0 -112 3 -121 45 -121 42 0 45 9 45
121 0 88 0 89 25 89 l25 0 0 -104 c0 -133 -11 -151 -94 -151 -86 0 -98 17
-104 149 l-5 106 32 0 31 0 0 -89z m296 2 l49 -88 3 88 c3 85 3 87 27 87 l25
0 0 -126 0 -125 -31 3 c-28 3 -37 13 -80 88 l-49 85 0 -87 c0 -87 0 -88 -25
-88 l-25 0 0 125 0 125 28 0 c25 0 34 -10 78 -87z m212 30 l29 -56 23 56 c21
50 27 57 52 57 15 0 28 -3 28 -7 0 -3 -18 -39 -40 -79 -30 -55 -40 -84 -40
-119 0 -41 -2 -45 -25 -45 -23 0 -25 3 -25 48 0 26 -4 52 -8 58 -5 5 -26 39
-46 77 l-37 67 30 0 c27 0 34 -7 59 -57z m308 -70 l43 -123 -29 0 c-23 0 -31
5 -36 25 -5 22 -11 25 -54 25 -43 0 -49 -3 -54 -25 -5 -18 -13 -25 -31 -25
-14 0 -25 4 -25 9 0 5 19 61 41 125 42 116 42 117 72 114 28 -3 31 -8 73 -125z
m-2266 -18 c0 -69 4 -125 8 -125 5 0 49 56 98 125 82 115 91 124 122 125 17 0
32 -2 32 -5 0 -3 -41 -62 -91 -131 -50 -69 -93 -131 -95 -138 -2 -6 9 -30 25
-51 17 -22 61 -83 100 -135 67 -92 68 -95 44 -98 -13 -2 -30 -1 -37 1 -7 3
-52 59 -100 126 -48 67 -92 121 -97 121 -5 0 -9 -54 -9 -125 l0 -125 -30 0
-30 0 0 280 0 280 30 0 30 0 0 -125z m530 -167 l0 -248 -25 0 -25 0 0 248 0
247 25 0 25 0 0 -247z m-240 226 c0 -3 -33 -52 -74 -108 l-74 -103 69 -94 c97
-133 95 -129 62 -129 -25 0 -39 15 -110 115 -45 63 -78 117 -73 120 4 3 40 50
80 105 57 80 76 100 95 100 14 0 25 -3 25 -6z m630 -369 l0 -135 -30 0 -30 0
0 135 0 135 30 0 30 0 0 -135z m170 0 l0 -135 -25 0 c-23 0 -25 3 -25 50 l0
50 -45 0 c-34 0 -47 5 -55 19 -15 29 -14 30 43 33 l52 3 3 58 c3 53 5 57 27
57 l25 0 0 -135z m190 126 c0 -5 -16 -46 -35 -90 l-34 -81 39 0 c45 0 46 3 24
55 -15 36 -14 39 5 58 11 12 22 19 24 16 5 -6 87 -208 87 -214 0 -3 -13 -5
-29 -5 -21 0 -32 6 -36 20 -5 17 -15 20 -70 20 -55 0 -65 -3 -70 -20 -5 -14
-15 -20 -37 -20 -24 0 -29 3 -24 18 4 9 28 70 54 134 44 110 49 118 75 118 15
0 27 -4 27 -9z m296 -7 c47 -22 61 -50 34 -64 -17 -9 -26 -7 -47 9 -36 29 -69
26 -105 -9 -26 -27 -30 -36 -25 -68 7 -43 46 -82 83 -82 14 0 36 11 49 24 24
24 25 24 46 7 l21 -17 -31 -27 c-17 -14 -47 -29 -65 -33 -49 -9 -120 25 -142
67 -63 123 59 251 182 193z m134 -46 l0 -62 46 62 c41 55 50 62 81 62 l34 0
-19 -27 c-11 -16 -47 -63 -81 -107 -42 -54 -61 -87 -61 -107 0 -26 -4 -29 -30
-29 l-30 0 0 135 0 135 30 0 30 0 0 -62z m318 42 c37 -23 39 -31 12 -48 -17
-10 -25 -9 -45 4 -16 10 -34 14 -51 10 -43 -11 -25 -38 44 -64 68 -26 88 -51
76 -99 -8 -29 -58 -63 -94 -63 -36 1 -110 36 -110 54 0 23 36 29 71 11 25 -13
37 -15 55 -6 46 21 23 48 -59 67 -38 9 -70 51 -62 84 15 64 97 90 163 50z
m-205 -191 c20 -25 37 -49 37 -53 0 -3 -14 -6 -30 -6 -21 0 -39 9 -55 28 -28
31 -28 32 -15 68 6 15 14 23 19 18 4 -5 24 -30 44 -55z"/>
<path d="M5592 7311 c-16 -52 -16 -51 17 -51 l30 0 -16 45 c-8 25 -16 45 -17
45 -2 0 -8 -17 -14 -39z"/>
<path d="M5810 7340 c0 -30 1 -31 43 -28 37 3 42 6 42 28 0 22 -5 25 -42 28
-42 3 -43 2 -43 -28z"/>
<path d="M6792 7330 c-26 -68 -26 -70 8 -70 28 0 30 2 24 28 -4 15 -10 36 -14
47 -8 19 -8 19 -18 -5z"/>
</g>
</svg>
